<svg width="67" height="24" viewBox="0 0 67 24" fill="none" xmlns="http://www.w3.org/2000/svg">
<g clip-path="url(#clip0_1_384)">
<path d="M28.4261 12.2896C28.4261 15.4249 25.9733 17.7353 22.9632 17.7353C19.953 17.7353 17.5002 15.4249 17.5002 12.2896C17.5002 9.13214 19.953 6.84385 22.9632 6.84385C25.9733 6.84385 28.4261 9.13214 28.4261 12.2896ZM26.0347 12.2896C26.0347 10.3303 24.6131 8.98973 22.9632 8.98973C21.3132 8.98973 19.8916 10.3303 19.8916 12.2896C19.8916 14.2292 21.3132 15.5894 22.9632 15.5894C24.6131 15.5894 26.0347 14.2268 26.0347 12.2896Z" fill="black" fill-opacity="0.2"/>
<path d="M40.2056 12.2896C40.2056 15.4249 37.7528 17.7353 34.7427 17.7353C31.7326 17.7353 29.2798 15.4249 29.2798 12.2896C29.2798 9.13459 31.7326 6.84385 34.7427 6.84385C37.7528 6.84385 40.2056 9.13214 40.2056 12.2896ZM37.8142 12.2896C37.8142 10.3303 36.3926 8.98973 34.7427 8.98973C33.0928 8.98973 31.6712 10.3303 31.6712 12.2896C31.6712 14.2292 33.0928 15.5894 34.7427 15.5894C36.3926 15.5894 37.8142 14.2268 37.8142 12.2896Z" fill="black" fill-opacity="0.2"/>
<path d="M51.5029 7.17285V16.9496C51.5029 20.9713 49.1312 22.6139 46.3273 22.6139C43.6879 22.6139 42.0993 20.8486 41.5003 19.4049L43.5823 18.5382C43.9531 19.4245 44.8615 20.4704 46.3248 20.4704C48.1196 20.4704 49.2318 19.3631 49.2318 17.2786V16.4954H49.1483C48.6131 17.1559 47.5819 17.7328 46.2806 17.7328C43.5578 17.7328 41.0632 15.3611 41.0632 12.3092C41.0632 9.23525 43.5578 6.84385 46.2806 6.84385C47.5794 6.84385 48.6106 7.42083 49.1483 8.06165H49.2318V7.17531H51.5029V7.17285ZM49.4012 12.3092C49.4012 10.3917 48.1221 8.98973 46.4942 8.98973C44.8443 8.98973 43.462 10.3917 43.462 12.3092C43.462 14.2071 44.8443 15.5894 46.4942 15.5894C48.1221 15.5894 49.4012 14.2071 49.4012 12.3092Z" fill="black" fill-opacity="0.2"/>
<path d="M55.2429 1.44228V17.4014H52.9104V1.44228H55.2429Z" fill="black" fill-opacity="0.2"/>
<path d="M64.3354 14.0817L66.1915 15.3192C65.5924 16.2055 64.1488 17.7327 61.6542 17.7327C58.5606 17.7327 56.2502 15.3413 56.2502 12.2869C56.2502 9.04847 58.5803 6.84121 61.3866 6.84121C64.2126 6.84121 65.5949 9.09021 66.0467 10.3056L66.2946 10.9243L59.0148 13.9393C59.5722 15.0319 60.4389 15.5892 61.6542 15.5892C62.872 15.5892 63.7166 14.9902 64.3354 14.0817ZM58.622 12.1224L63.4883 10.1018C63.2207 9.42167 62.4154 8.94781 61.4676 8.94781C60.2523 8.94781 58.5606 10.0207 58.622 12.1224Z" fill="black" fill-opacity="0.2"/>
<path d="M8.66625 10.8728V8.56247H16.4518C16.5279 8.96513 16.5672 9.44144 16.5672 9.95704C16.5672 11.6904 16.0934 13.8339 14.5662 15.361C13.0808 16.9078 11.1829 17.7328 8.6687 17.7328C4.00865 17.7328 0.0900879 13.937 0.0900879 9.27694C0.0900879 4.61689 4.00865 0.821091 8.6687 0.821091C11.2467 0.821091 13.0832 1.83265 14.4631 3.15111L12.8328 4.7814C11.8433 3.85331 10.5028 3.13147 8.66625 3.13147C5.26328 3.13147 2.6018 5.87398 2.6018 9.27694C2.6018 12.6799 5.26328 15.4224 8.66625 15.4224C10.8735 15.4224 12.1306 14.5361 12.9359 13.7308C13.589 13.0777 14.0187 12.1447 14.1881 10.8704L8.66625 10.8728Z" fill="black" fill-opacity="0.2"/>
</g>
<defs>
<clipPath id="clip0_1_384">
<rect width="66.7826" height="22.5882" fill="white" transform="translate(0 0.705833)"/>
</clipPath>
</defs>
</svg>
